<svg xmlns="http://www.w3.org/2000/svg" width="89.382" height="73.755" viewBox="0 0 89.382 73.755">
  <path id="combined-shape-1" d="M86.382,1.746a1.5,1.5,0,1,1,1.5,1.5A1.5,1.5,0,0,1,86.382,1.746Zm0,7.862a1.5,1.5,0,1,1,1.5,1.5A1.5,1.5,0,0,1,86.382,9.608Zm0,7.861a1.5,1.5,0,1,1,1.5,1.5A1.5,1.5,0,0,1,86.382,17.469Zm0,7.862a1.5,1.5,0,1,1,1.5,1.5A1.5,1.5,0,0,1,86.382,25.331Zm0,7.861a1.5,1.5,0,1,1,1.5,1.5A1.5,1.5,0,0,1,86.382,33.192Zm0,7.862a1.5,1.5,0,1,1,1.5,1.5A1.5,1.5,0,0,1,86.382,41.054Zm0,7.861a1.5,1.5,0,1,1,1.5,1.5A1.5,1.5,0,0,1,86.382,48.915Zm0,7.862a1.5,1.5,0,1,1,1.5,1.5A1.5,1.5,0,0,1,86.382,56.777Zm0,7.861a1.5,1.5,0,1,1,1.5,1.5A1.5,1.5,0,0,1,86.382,64.638Zm0,7.862a1.5,1.5,0,1,1,1.5,1.5A1.5,1.5,0,0,1,86.382,72.5ZM78.53,1.746a1.5,1.5,0,1,1,1.5,1.5A1.5,1.5,0,0,1,78.53,1.746Zm0,70.754a1.5,1.5,0,1,1,1.5,1.5A1.5,1.5,0,0,1,78.53,72.5Zm0-7.862a1.5,1.5,0,1,1,1.5,1.5A1.5,1.5,0,0,1,78.53,64.638Zm0-7.861a1.5,1.5,0,1,1,1.5,1.5A1.5,1.5,0,0,1,78.53,56.777Zm0-7.862a1.5,1.5,0,1,1,1.5,1.5A1.5,1.5,0,0,1,78.53,48.915Zm0-7.861a1.5,1.5,0,1,1,1.5,1.5A1.5,1.5,0,0,1,78.53,41.054Zm0-7.862a1.5,1.5,0,1,1,1.5,1.5A1.5,1.5,0,0,1,78.53,33.192Zm0-7.861a1.5,1.5,0,1,1,1.5,1.5A1.5,1.5,0,0,1,78.53,25.331Zm0-7.862a1.5,1.5,0,1,1,1.5,1.5A1.5,1.5,0,0,1,78.53,17.469Zm0-7.861a1.5,1.5,0,1,1,1.5,1.5A1.5,1.5,0,0,1,78.53,9.608ZM70.676,72.5a1.5,1.5,0,1,1,1.5,1.5A1.5,1.5,0,0,1,70.676,72.5Zm0-7.862a1.5,1.5,0,1,1,1.5,1.5A1.5,1.5,0,0,1,70.676,64.638Zm0-7.861a1.5,1.5,0,1,1,1.5,1.5A1.5,1.5,0,0,1,70.676,56.777Zm0-7.862a1.5,1.5,0,1,1,1.5,1.5A1.5,1.5,0,0,1,70.676,48.915Zm0-7.861a1.5,1.5,0,1,1,1.5,1.5A1.5,1.5,0,0,1,70.676,41.054Zm0-7.862a1.5,1.5,0,1,1,1.5,1.5A1.5,1.5,0,0,1,70.676,33.192Zm0-7.861a1.5,1.5,0,1,1,1.5,1.5A1.5,1.5,0,0,1,70.676,25.331Zm0-7.862a1.5,1.5,0,1,1,1.5,1.5A1.5,1.5,0,0,1,70.676,17.469Zm0-7.861a1.5,1.5,0,1,1,1.5,1.5A1.5,1.5,0,0,1,70.676,9.608Zm0-7.862a1.5,1.5,0,1,1,1.5,1.5A1.5,1.5,0,0,1,70.676,1.746ZM62.824,64.638a1.5,1.5,0,1,1,1.5,1.5,1.5,1.5,0,0,1-1.5-1.5Zm0-7.861a1.5,1.5,0,1,1,1.5,1.5,1.5,1.5,0,0,1-1.5-1.5Zm0-7.862a1.5,1.5,0,1,1,1.5,1.5,1.5,1.5,0,0,1-1.5-1.5Zm0-47.169a1.5,1.5,0,1,1,1.5,1.5,1.5,1.5,0,0,1-1.5-1.5Zm0,39.308a1.5,1.5,0,1,1,1.5,1.5,1.5,1.5,0,0,1-1.5-1.5Zm0-7.862a1.5,1.5,0,1,1,1.5,1.5,1.5,1.5,0,0,1-1.5-1.5Zm0-7.861a1.5,1.5,0,1,1,1.5,1.5,1.5,1.5,0,0,1-1.5-1.5Zm0-7.862a1.5,1.5,0,1,1,1.5,1.5,1.5,1.5,0,0,1-1.5-1.5Zm0-7.861a1.5,1.5,0,1,1,1.5,1.5,1.5,1.5,0,0,1-1.5-1.5Zm0,62.892a1.5,1.5,0,1,1,1.5,1.5,1.5,1.5,0,0,1-1.5-1.5Zm-7.853-7.862a1.5,1.5,0,1,1,1.5,1.5A1.5,1.5,0,0,1,54.971,64.638Zm0-7.861a1.5,1.5,0,1,1,1.5,1.5A1.5,1.5,0,0,1,54.971,56.777Zm0-7.862a1.5,1.5,0,1,1,1.5,1.5A1.5,1.5,0,0,1,54.971,48.915Zm0-7.861a1.5,1.5,0,1,1,1.5,1.5A1.5,1.5,0,0,1,54.971,41.054Zm0-7.862a1.5,1.5,0,1,1,1.5,1.5A1.5,1.5,0,0,1,54.971,33.192Zm0-7.861a1.5,1.5,0,1,1,1.5,1.5A1.5,1.5,0,0,1,54.971,25.331Zm0-7.862a1.5,1.5,0,1,1,1.5,1.5A1.5,1.5,0,0,1,54.971,17.469Zm0-7.861a1.5,1.5,0,1,1,1.5,1.5A1.5,1.5,0,0,1,54.971,9.608Zm0-7.862a1.5,1.5,0,1,1,1.5,1.5A1.5,1.5,0,0,1,54.971,1.746Zm0,70.754a1.5,1.5,0,1,1,1.5,1.5A1.5,1.5,0,0,1,54.971,72.5ZM47.118,41.054a1.5,1.5,0,1,1,1.5,1.5A1.5,1.5,0,0,1,47.118,41.054Zm0-31.446a1.5,1.5,0,1,1,1.5,1.5A1.5,1.5,0,0,1,47.118,9.608Zm0,7.861a1.5,1.5,0,1,1,1.5,1.5A1.5,1.5,0,0,1,47.118,17.469Zm0,7.862a1.5,1.5,0,1,1,1.5,1.5A1.5,1.5,0,0,1,47.118,25.331Zm0,7.861a1.5,1.5,0,1,1,1.5,1.5A1.5,1.5,0,0,1,47.118,33.192Zm0,15.723a1.5,1.5,0,1,1,1.5,1.5A1.5,1.5,0,0,1,47.118,48.915Zm0,7.862a1.5,1.5,0,1,1,1.5,1.5A1.5,1.5,0,0,1,47.118,56.777Zm0,7.861a1.5,1.5,0,1,1,1.5,1.5A1.5,1.5,0,0,1,47.118,64.638Zm0,7.862a1.5,1.5,0,1,1,1.5,1.5A1.5,1.5,0,0,1,47.118,72.5Zm0-70.754a1.5,1.5,0,1,1,1.5,1.5A1.5,1.5,0,0,1,47.118,1.746ZM39.265,17.47a1.5,1.5,0,1,1,1.5,1.5A1.5,1.5,0,0,1,39.265,17.47Zm0,7.862a1.5,1.5,0,1,1,1.5,1.5A1.5,1.5,0,0,1,39.265,25.332Zm0,7.861a1.5,1.5,0,1,1,1.5,1.5A1.5,1.5,0,0,1,39.265,33.193Zm0,15.723a1.5,1.5,0,1,1,1.5,1.5A1.5,1.5,0,0,1,39.265,48.916Zm0,7.862a1.5,1.5,0,1,1,1.5,1.5A1.5,1.5,0,0,1,39.265,56.778Zm0,7.861a1.5,1.5,0,1,1,1.5,1.5A1.5,1.5,0,0,1,39.265,64.639Zm0,7.862a1.5,1.5,0,1,1,1.5,1.5A1.5,1.5,0,0,1,39.265,72.5Zm0-70.754a1.5,1.5,0,1,1,1.5,1.5A1.5,1.5,0,0,1,39.265,1.747Zm0,39.308a1.5,1.5,0,1,1,1.5,1.5A1.5,1.5,0,0,1,39.265,41.055Zm0-31.446a1.5,1.5,0,1,1,1.5,1.5A1.5,1.5,0,0,1,39.265,9.609Zm-7.853,55.03a1.5,1.5,0,1,1,1.5,1.5A1.5,1.5,0,0,1,31.412,64.639Zm0,7.862a1.5,1.5,0,1,1,1.5,1.5A1.5,1.5,0,0,1,31.412,72.5Zm0-39.308a1.5,1.5,0,1,1,1.5,1.5A1.5,1.5,0,0,1,31.412,33.193Zm0,7.862a1.5,1.5,0,1,1,1.5,1.5A1.5,1.5,0,0,1,31.412,41.055Zm0,7.861a1.5,1.5,0,1,1,1.5,1.5A1.5,1.5,0,0,1,31.412,48.916Zm0,7.862a1.5,1.5,0,1,1,1.5,1.5A1.5,1.5,0,0,1,31.412,56.778Zm0-55.03a1.5,1.5,0,1,1,1.5,1.5A1.5,1.5,0,0,1,31.412,1.748Zm0,7.86a1.5,1.5,0,1,1,1.5,1.5A1.5,1.5,0,0,1,31.412,9.608Zm0,7.862a1.5,1.5,0,1,1,1.5,1.5A1.5,1.5,0,0,1,31.412,17.47Zm0,7.862a1.5,1.5,0,1,1,1.5,1.5A1.5,1.5,0,0,1,31.412,25.332ZM23.559,56.778a1.5,1.5,0,1,1,1.5,1.5A1.5,1.5,0,0,1,23.559,56.778Zm0-39.308a1.5,1.5,0,1,1,1.5,1.5A1.5,1.5,0,0,1,23.559,17.47Zm0,7.862a1.5,1.5,0,1,1,1.5,1.5A1.5,1.5,0,0,1,23.559,25.332Zm0,7.861a1.5,1.5,0,1,1,1.5,1.5A1.5,1.5,0,0,1,23.559,33.193Zm0,7.862a1.5,1.5,0,1,1,1.5,1.5A1.5,1.5,0,0,1,23.559,41.055Zm0,7.861a1.5,1.5,0,1,1,1.5,1.5A1.5,1.5,0,0,1,23.559,48.916Zm0,15.723a1.5,1.5,0,1,1,1.5,1.5A1.5,1.5,0,0,1,23.559,64.639Zm0,7.862a1.5,1.5,0,1,1,1.5,1.5A1.5,1.5,0,0,1,23.559,72.5Zm0-70.754a1.5,1.5,0,1,1,1.5,1.5A1.5,1.5,0,0,1,23.559,1.747Zm0,7.862a1.5,1.5,0,1,1,1.5,1.5A1.5,1.5,0,0,1,23.559,9.609Zm-7.853,0a1.5,1.5,0,1,1,1.5,1.5A1.5,1.5,0,0,1,15.706,9.609Zm0,7.861a1.5,1.5,0,1,1,1.5,1.5A1.5,1.5,0,0,1,15.706,17.47Zm0,7.862a1.5,1.5,0,1,1,1.5,1.5A1.5,1.5,0,0,1,15.706,25.332Zm0,7.861a1.5,1.5,0,1,1,1.5,1.5A1.5,1.5,0,0,1,15.706,33.193Zm0,15.723a1.5,1.5,0,1,1,1.5,1.5A1.5,1.5,0,0,1,15.706,48.916Zm0,7.862a1.5,1.5,0,1,1,1.5,1.5A1.5,1.5,0,0,1,15.706,56.778Zm0,7.861a1.5,1.5,0,1,1,1.5,1.5A1.5,1.5,0,0,1,15.706,64.639Zm0,7.862a1.5,1.5,0,1,1,1.5,1.5A1.5,1.5,0,0,1,15.706,72.5Zm0-31.446a1.5,1.5,0,1,1,1.5,1.5A1.5,1.5,0,0,1,15.706,41.055Zm0-39.308a1.5,1.5,0,1,1,1.5,1.5A1.5,1.5,0,0,1,15.706,1.747ZM7.853,72.5a1.5,1.5,0,1,1,1.5,1.5,1.5,1.5,0,0,1-1.5-1.5Zm0-31.446a1.5,1.5,0,1,1,1.5,1.5,1.5,1.5,0,0,1-1.5-1.5Zm0-23.585a1.5,1.5,0,1,1,1.5,1.5,1.5,1.5,0,0,1-1.5-1.5Zm0-7.861a1.5,1.5,0,1,1,1.5,1.5,1.5,1.5,0,0,1-1.5-1.5Zm0-7.862a1.5,1.5,0,1,1,1.5,1.5,1.5,1.5,0,0,1-1.5-1.5Zm0,31.446a1.5,1.5,0,1,1,1.5,1.5,1.5,1.5,0,0,1-1.5-1.5Zm0,31.446a1.5,1.5,0,1,1,1.5,1.5,1.5,1.5,0,0,1-1.5-1.5Zm0-7.861a1.5,1.5,0,1,1,1.5,1.5,1.5,1.5,0,0,1-1.5-1.5Zm0-7.862a1.5,1.5,0,1,1,1.5,1.5,1.5,1.5,0,0,1-1.5-1.5Zm0-23.584a1.5,1.5,0,1,1,1.5,1.5,1.5,1.5,0,0,1-1.5-1.5ZM0,17.469a1.5,1.5,0,1,1,1.5,1.5,1.5,1.5,0,0,1-1.5-1.5ZM0,9.608a1.5,1.5,0,1,1,1.5,1.5A1.5,1.5,0,0,1,0,9.608ZM0,1.746a1.5,1.5,0,1,1,1.5,1.5A1.5,1.5,0,0,1,0,1.746ZM0,72.5A1.5,1.5,0,1,1,1.5,74,1.5,1.5,0,0,1,0,72.5Zm0-7.862a1.5,1.5,0,1,1,1.5,1.5A1.5,1.5,0,0,1,0,64.638Zm0-7.861a1.5,1.5,0,1,1,1.5,1.5A1.5,1.5,0,0,1,0,56.777Zm0-7.862a1.5,1.5,0,1,1,1.5,1.5A1.5,1.5,0,0,1,0,48.915Zm0-7.861a1.5,1.5,0,1,1,1.5,1.5A1.5,1.5,0,0,1,0,41.054Zm0-7.862a1.5,1.5,0,1,1,1.5,1.5A1.5,1.5,0,0,1,0,33.192Zm0-7.861a1.5,1.5,0,1,1,1.5,1.5,1.5,1.5,0,0,1-1.5-1.5Z" transform="translate(0 -0.246)" fill="#bcbcbc" fill-rule="evenodd"/>
</svg>
