<svg xmlns="http://www.w3.org/2000/svg" width="28.725" height="23.33" viewBox="0 0 28.725 23.33">
  <path id="Icon_awesome-twitter" data-name="Icon awesome-twitter" d="M25.772,9.195c.018.255.018.51.018.766,0,7.783-5.924,16.75-16.75,16.75A16.636,16.636,0,0,1,0,24.068a12.179,12.179,0,0,0,1.422.073A11.79,11.79,0,0,0,8.73,21.625a5.9,5.9,0,0,1-5.5-4.083,7.424,7.424,0,0,0,1.112.091,6.226,6.226,0,0,0,1.549-.2,5.888,5.888,0,0,1-4.721-5.778v-.073a5.929,5.929,0,0,0,2.661.747A5.9,5.9,0,0,1,2,4.456a16.734,16.734,0,0,0,12.139,6.161A6.646,6.646,0,0,1,14,9.268,5.893,5.893,0,0,1,24.186,5.24a11.591,11.591,0,0,0,3.736-1.422,5.871,5.871,0,0,1-2.588,3.244,11.8,11.8,0,0,0,3.39-.911,12.655,12.655,0,0,1-2.953,3.044Z" transform="translate(0 -3.381)"/>
</svg>
