<svg xmlns="http://www.w3.org/2000/svg" width="25.134" height="25.134" viewBox="0 0 25.134 25.134">
  <path id="Icon_awesome-rss" data-name="Icon awesome-rss" d="M7.186,23.791A3.593,3.593,0,1,1,3.593,20.2,3.593,3.593,0,0,1,7.186,23.791Zm9.855,2.651a17.059,17.059,0,0,0-16.1-16.1.9.9,0,0,0-.942.9v2.7a.9.9,0,0,0,.835.9A12.571,12.571,0,0,1,12.548,26.549a.9.9,0,0,0,.9.835h2.7a.9.9,0,0,0,.9-.942Zm8.093.016A25.152,25.152,0,0,0,.926,2.251a.9.9,0,0,0-.926.9v2.7a.9.9,0,0,0,.867.9A20.649,20.649,0,0,1,20.641,26.517a.9.9,0,0,0,.9.867h2.7a.9.9,0,0,0,.9-.926Z" transform="translate(0 -2.25)"/>
</svg>
