<svg id="white-logo" xmlns="http://www.w3.org/2000/svg" width="161.797" height="28.215" viewBox="0 0 161.797 28.215">
  <path id="Path_1" data-name="Path 1" d="M32.957,114.331a4.449,4.449,0,0,0-.736-1.821c-.354-.613-.892-1.4-.892-1.4s-.54.786-.894,1.4a4.449,4.449,0,0,0-.736,1.821,1.63,1.63,0,0,0,3.257,0Z" transform="translate(-23.439 -87.687)" fill="#fff"/>
  <path id="Path_2" data-name="Path 2" d="M51.29,39.906h7.619v2.909a5.255,5.255,0,0,1,1.549-2.34,4.8,4.8,0,0,1,3.162-.885q4.9,0,4.9,5.27v9.514h1.771v.569H61.348v-.569h1.3V44.1a7.36,7.36,0,0,0-.253-2.452.925.925,0,0,0-.917-.552q-1.012,0-1.788,1.328a6.3,6.3,0,0,0-.774,3.223v8.725h1.36v.569H51.29v-.569h1.739V40.463H51.29Z" transform="translate(-40.478 -31.244)" fill="#fff"/>
  <path id="Path_3" data-name="Path 3" d="M153.266,23.71v-.569h1.452l-3.571-7.33-.6.158v7.168H152v.569h-9.065v-.569h1.737V.569H142.81V0h7.745V15.332l.506-.19,7.113-5.9H155.2V8.671h6.221V9.24h-2.214l-3.763,3.185,5.471,10.715h1.138v.569Z" transform="translate(-112.704)" fill="#fff"/>
  <path id="Path_4" data-name="Path 4" d="M235.369,53.137a8.049,8.049,0,0,1-2.039-5.848,7.233,7.233,0,0,1,2.3-5.747,8.575,8.575,0,0,1,5.833-1.992q7.168,0,6.891,7.208h-8.915v1.233a10.82,10.82,0,0,0,.791,4.68,2.806,2.806,0,0,0,2.741,1.579q3.668,0,4.806-3.919l.569.095a6.5,6.5,0,0,1-2.157,3.554,7.375,7.375,0,0,1-4.7,1.265Q237.411,55.245,235.369,53.137Zm4.094-7h3.257V44.586a13.318,13.318,0,0,0-.3-3.5,1.185,1.185,0,0,0-1.2-.932,1.4,1.4,0,0,0-1.328,1,9.664,9.664,0,0,0-.422,3.432Z" transform="translate(-184.142 -31.212)" fill="#fff"/>
  <path id="Path_5" data-name="Path 5" d="M321.935,23.71l-.354-2.207q-1.075,2.53-4.364,2.53A5,5,0,0,1,313,22.074q-1.5-1.958-1.5-5.85,0-7.872,6.259-7.872,2.783,0,3.668,1.549V.569H319.5V0h7.9V23.141h1.549v.569Zm-3.982-2.133a1.315,1.315,0,0,0,1.28,1.092,2.036,2.036,0,0,0,1.613-.822,3.793,3.793,0,0,0,.668-2.435V12.52a4.617,4.617,0,0,0-.538-2.319,1.72,1.72,0,0,0-1.581-.949q-1.054,0-1.423,1.391a22.009,22.009,0,0,0-.379,4.868v1.644a17.8,17.8,0,0,0,.352,4.421Z" transform="translate(-245.833)" fill="#fff"/>
  <path id="Path_6" data-name="Path 6" d="M398.46,39.906h7.619v2.909a5.255,5.255,0,0,1,1.56-2.34,4.8,4.8,0,0,1,3.162-.885q4.9,0,4.9,5.27v9.514h1.769v.569h-8.959v-.569h1.3V44.1a7.3,7.3,0,0,0-.253-2.452.921.921,0,0,0-.915-.552q-1.014,0-1.788,1.328a6.3,6.3,0,0,0-.774,3.223v8.725h1.36v.569H398.46v-.569H400.2V40.463H398.46Z" transform="translate(-314.46 -31.244)" fill="#fff"/>
  <path id="Path_7" data-name="Path 7" d="M493.754,53.248a7.851,7.851,0,0,1-2.024-5.8,7.61,7.61,0,0,1,2.165-5.818,8.528,8.528,0,0,1,6.086-2.039q3.923,0,5.848,1.88t1.929,5.738q0,8.064-8.03,8.061Q495.778,55.276,493.754,53.248Zm7.941-4.522V46.039a21.065,21.065,0,0,0-.337-4.465q-.337-1.4-1.533-1.406a1.589,1.589,0,0,0-1.124.4,2.475,2.475,0,0,0-.616,1.311,24.045,24.045,0,0,0-.285,4.33v2.466a21.94,21.94,0,0,0,.211,4.142,7.076,7.076,0,0,0,.422,1.138,1.353,1.353,0,0,0,1.36.757,1.612,1.612,0,0,0,1.611-1.421A21.514,21.514,0,0,0,501.695,48.727Z" transform="translate(-388.068 -31.244)" fill="#fff"/>
  <path id="Path_8" data-name="Path 8" d="M572.957,30.9V20.951H571.22v-.569h1.737V16.3l5.882-1.455v5.532h4.109v.569h-4.109V31.605a5.936,5.936,0,0,0,.3,2.182,1.2,1.2,0,0,0,1.25.7,2.048,2.048,0,0,0,1.659-.949,5.5,5.5,0,0,0,.932-2.593l.538.063a6.128,6.128,0,0,1-1.391,3.462,4.832,4.832,0,0,1-3.761,1.286,6.559,6.559,0,0,1-4.016-1.054Q572.957,33.644,572.957,30.9Z" transform="translate(-450.801 -11.719)" fill="#fff"/>
  <path id="Path_9" data-name="Path 9" d="M633.839,53.137a8.073,8.073,0,0,1-2.038-5.848,7.221,7.221,0,0,1,2.292-5.747,8.575,8.575,0,0,1,5.833-1.992q7.168,0,6.893,7.208H637.9v1.233a10.82,10.82,0,0,0,.791,4.68,2.806,2.806,0,0,0,2.74,1.579q3.668,0,4.807-3.919l.569.095a6.5,6.5,0,0,1-2.157,3.554,7.359,7.359,0,0,1-4.695,1.265Q635.881,55.245,633.839,53.137Zm4.094-7h3.257V44.586a13.415,13.415,0,0,0-.3-3.5,1.193,1.193,0,0,0-1.2-.932,1.4,1.4,0,0,0-1.328,1,9.917,9.917,0,0,0-.422,3.432Z" transform="translate(-498.61 -31.212)" fill="#fff"/>
  <path id="Path_10" data-name="Path 10" d="M710.372,55.008V49.344h.379a7.585,7.585,0,0,0,2.214,3.858,5.4,5.4,0,0,0,3.478,1.1q3.223,0,3.223-2.053a1.431,1.431,0,0,0-.791-1.328,10.656,10.656,0,0,0-3.162-1.075,12.371,12.371,0,0,1-3.6-1.518,4,4,0,0,1-1.739-3.6,5.225,5.225,0,0,1,1.518-3.936,5.559,5.559,0,0,1,4.048-1.476,7.869,7.869,0,0,1,3.194.725,2.627,2.627,0,0,0,.917.253.731.731,0,0,0,.538-.221,3.647,3.647,0,0,0,.538-.822h.344V44.1h-.379q-1.613-4.111-4.994-4.111a3.847,3.847,0,0,0-2.214.521,1.564,1.564,0,0,0-.727,1.313,1.133,1.133,0,0,0,.211.742c.148.179.264.312.348.4a1.625,1.625,0,0,0,.422.268,4.329,4.329,0,0,0,.474.211c.127.053.32.122.584.211a4.69,4.69,0,0,0,.586.158,24.2,24.2,0,0,1,3.1.932,10.572,10.572,0,0,1,1.8.963,4.371,4.371,0,0,1,1.739,3.873,5.077,5.077,0,0,1-1.581,4.048A6.377,6.377,0,0,1,716.5,55a8.411,8.411,0,0,1-3.795-.915,1.217,1.217,0,0,0-.6-.253q-.7,0-1.36,1.168Z" transform="translate(-560.617 -30.976)" fill="#fff"/>
  <path id="Path_11" data-name="Path 11" d="M9.642,8.1V7.5H0v.6H1.739V22.347L7.9,29V8.1Z" transform="translate(0 -5.919)" fill="#fff"/>
</svg>
